<mxfile host="app.diagrams.net" modified="2024-07-11T10:57:20.983Z" agent="Mozilla/5.0 (Windows NT 10.0; Win64; x64) AppleWebKit/537.36 (KHTML, like Gecko) Chrome/126.0.0.0 Safari/537.36" etag="hpQIhTUFNF_c6M3FTg4E" version="24.6.4" type="github">
  <diagram id="C5RBs43oDa-KdzZeNtuy" name="Page-1">
    <mxGraphModel dx="1290" dy="530" grid="1" gridSize="10" guides="1" tooltips="1" connect="1" arrows="1" fold="1" page="1" pageScale="1" pageWidth="827" pageHeight="1169" math="0" shadow="0">
      <root>
        <mxCell id="WIyWlLk6GJQsqaUBKTNV-0" />
        <mxCell id="WIyWlLk6GJQsqaUBKTNV-1" parent="WIyWlLk6GJQsqaUBKTNV-0" />
        <mxCell id="7-doZfA_weWOwP3v6PCK-0" value="SourceFactory" style="html=1;whiteSpace=wrap;" vertex="1" parent="WIyWlLk6GJQsqaUBKTNV-1">
          <mxGeometry x="480" y="400" width="110" height="50" as="geometry" />
        </mxCell>
        <mxCell id="7-doZfA_weWOwP3v6PCK-1" value="ParticleMass" style="html=1;whiteSpace=wrap;" vertex="1" parent="WIyWlLk6GJQsqaUBKTNV-1">
          <mxGeometry x="230" y="25" width="110" height="50" as="geometry" />
        </mxCell>
        <mxCell id="7-doZfA_weWOwP3v6PCK-2" value="MassMean" style="html=1;whiteSpace=wrap;" vertex="1" parent="WIyWlLk6GJQsqaUBKTNV-1">
          <mxGeometry x="230" y="95" width="110" height="50" as="geometry" />
        </mxCell>
        <mxCell id="7-doZfA_weWOwP3v6PCK-3" value="EventSource" style="html=1;whiteSpace=wrap;" vertex="1" parent="WIyWlLk6GJQsqaUBKTNV-1">
          <mxGeometry x="610" y="400" width="110" height="50" as="geometry" />
        </mxCell>
        <mxCell id="7-doZfA_weWOwP3v6PCK-4" value="EventSim" style="html=1;whiteSpace=wrap;" vertex="1" parent="WIyWlLk6GJQsqaUBKTNV-1">
          <mxGeometry x="610" y="320" width="110" height="50" as="geometry" />
        </mxCell>
        <mxCell id="7-doZfA_weWOwP3v6PCK-5" value="EventReadFromFile" style="html=1;whiteSpace=wrap;" vertex="1" parent="WIyWlLk6GJQsqaUBKTNV-1">
          <mxGeometry x="610" y="250" width="110" height="50" as="geometry" />
        </mxCell>
        <mxCell id="7-doZfA_weWOwP3v6PCK-6" value="EventDump" style="html=1;whiteSpace=wrap;" vertex="1" parent="WIyWlLk6GJQsqaUBKTNV-1">
          <mxGeometry x="610" y="170" width="110" height="50" as="geometry" />
        </mxCell>
        <mxCell id="7-doZfA_weWOwP3v6PCK-7" value="Event" style="html=1;whiteSpace=wrap;" vertex="1" parent="WIyWlLk6GJQsqaUBKTNV-1">
          <mxGeometry x="610" y="100" width="110" height="50" as="geometry" />
        </mxCell>
        <mxCell id="7-doZfA_weWOwP3v6PCK-8" value="AnalysisInfo" style="html=1;whiteSpace=wrap;" vertex="1" parent="WIyWlLk6GJQsqaUBKTNV-1">
          <mxGeometry x="70" y="175" width="110" height="50" as="geometry" />
        </mxCell>
        <mxCell id="7-doZfA_weWOwP3v6PCK-9" value="AnalysisSteering" style="html=1;whiteSpace=wrap;" vertex="1" parent="WIyWlLk6GJQsqaUBKTNV-1">
          <mxGeometry x="70" y="95" width="110" height="50" as="geometry" />
        </mxCell>
        <mxCell id="7-doZfA_weWOwP3v6PCK-10" value="AnalysisFactory" style="html=1;whiteSpace=wrap;" vertex="1" parent="WIyWlLk6GJQsqaUBKTNV-1">
          <mxGeometry x="70" y="25" width="110" height="50" as="geometry" />
        </mxCell>
      </root>
    </mxGraphModel>
  </diagram>
</mxfile>
